<svg xmlns="http://www.w3.org/2000/svg" height="48" viewBox="0 -960 960 960" width="48"><path d="M182.348-207.269v-43.846h70.768v-313.154q0-28.284 6.423-55.876 6.423-27.593 20.154-52.546l32.999 32.999q-7.769 18.177-11.75 37.068t-3.981 38.355v313.154h345.117L99.271-792.461l30.768-31.076 701.768 702.768-30.768 30.384L683.94-207.27H182.348Zm525.228-130.54-43.845-43.845v-182.615q0-76.071-53.951-129.555-53.952-53.484-129.78-53.484-37.581 0-71.233 13.538-33.652 13.539-58.036 39.116l-33.23-32.615q23.259-23.184 51.884-38.533 28.625-15.35 61.231-22.042v-19.58q0-20.79 14.261-35.24 14.261-14.45 35.019-14.45t35.123 14.447q14.365 14.448 14.365 35.278v19.658q79.961 14.924 129.077 78.718 49.115 63.795 49.115 145.075v226.129Zm-237.652-85.576Zm10.008 327.384q-29.355 0-50.489-21.182-21.135-21.183-21.135-50.51h143.384q0 29.423-21.203 50.558-21.202 21.134-50.557 21.134Zm27.491-441.961Z"/></svg>