<svg xmlns="http://www.w3.org/2000/svg" height="48" viewBox="0 -960 960 960" width="48"><path d="M400.33-495.847q-57.464 0-94.32-36.641-36.855-36.641-36.855-94.49 0-57.463 36.833-94.319 36.834-36.855 94.298-36.855 57.463 0 94.319 36.833 36.855 36.833 36.855 94.297 0 57.849-36.833 94.512-36.833 36.663-94.297 36.663ZM103.078-194.54v-74.076q0-31.038 15.519-54.596 15.519-23.557 45.327-37.095 66.692-30.115 122.057-43.269 55.365-13.154 114.232-13.154h10.082q5.179 0 9.628-.385-4.154 11.308-6.385 21.11-2.23 9.803-3.846 23.12h-9.384q-57.962 0-109.481 11.212-51.519 11.211-108.326 40.172-19.578 10.231-27.578 23.747t-8 29.138v29.956h263.09q3.025 12.774 8.141 23.736 5.115 10.961 11.538 20.384H103.078Zm560.229 32.153-6.999-56.923q-17.948-4.126-35.96-13.954t-29.887-23.123l-48.153 12.847-16.769-27.769 41.692-36.461Q563-319.462 563-337.693q0-18.231 4.231-30.438l-41.307-37.024 16.769-27.768 47.658 13.539q11.726-14.039 29.89-23.551 18.165-9.512 36.067-13.526l7.066-56.923h36.24l7 56.923q18.266 4.23 36.21 13.73 17.944 9.5 29.944 22.962l47.461-13.154 16.384 27.384-41 37.153q4.308 12.891 4.308 30.561t-4.308 30.055l41.385 36.461-16.384 27.769-47.687-12.847q-12.544 13.462-30.296 23.232-17.751 9.771-36.017 13.845l-7.067 56.923h-36.24Zm17.871-99.768q33.773 0 54.682-21.143 20.908-21.142 20.908-54.917 0-33.954-20.942-54.639-20.943-20.685-54.716-20.685-33.388 0-54.557 20.864-21.169 20.865-21.169 54.904 0 33.655 21.1 54.635 21.099 20.981 54.694 20.981Zm-280.87-277.537q37.461 0 62.384-24.731 24.923-24.731 24.923-62.577 0-37.461-24.923-62.384-24.923-24.923-62.384-24.923-37.462 0-62.385 24.923Q313-664.461 313-627q0 37.846 24.923 62.577t62.385 24.731Zm0-87.308Zm9.769 388.615Z"/></svg>