<svg xmlns="http://www.w3.org/2000/svg" height="48" viewBox="0 -960 960 960" width="48"><path d="M673.94-103.078q-76.132 0-129.555-53.426-53.423-53.425-53.423-130.056 0-75.94 53.33-129.459 53.329-53.519 129.46-53.519 76.132 0 129.901 53.426 53.769 53.425 53.769 129.364 0 76.632-53.676 130.151-53.675 53.519-129.806 53.519Zm80.367-104.699q4.615-4.691 2.308-10.853-2.308-6.163-8.539-7.14-23.769-3.923-44.384-17.461-20.615-13.539-33.461-36.029-12.847-22.491-14.539-46.846-1.692-24.355 6.923-47.453 2-5.902-2.417-11.018-4.417-5.115-9.929-3.5-61.884 11.231-84.211 69.865-22.327 58.635 18.57 108.314 31.684 40.36 83.778 41.34 52.093.98 85.901-39.219ZM480.192-480Zm-77.645 376.922-17.892-119.308q-17.347-5.461-41.501-18.961-24.154-13.5-45-30.154l-110.422 50.307-78.384-138.844 100.461-73.577q-2.192-10.706-2.981-22.68-.788-11.974-.788-23.32 0-9.847.788-22.462.789-12.616 2.789-24.923l-100.269-74.346 78.384-137.383 110.845 49.846q17.501-14.231 40.578-27.731 23.077-13.5 45.115-20.193l18.462-120.422h155.229l18.076 119.692q21.693 7.961 44.02 20.538t40.019 28.116l113.269-49.846 77.999 137.383-85.384 61.961q-13.23-5.384-26.826-8.384t-27.173-5.808L792.692-613 753.5-683.538 647.269-638q-21.154-23.077-50.673-41.154-29.519-18.077-59.942-22.5l-13.545-111.73h-85.955l-12.731 111.538q-34.23 7.115-61.173 22.442-26.942 15.327-51.711 41.02l-104.346-45.154L167-613l92.654 67.346q-4.385 16.154-6.692 32.308-2.308 16.154-2.308 33.2 0 17.031 2.058 32.704 2.057 15.673 6.057 32.211L167-347.308l40.269 70.539 104.077-44.847q21.193 21.193 44.177 35.803 22.984 14.611 50.285 23.044 3.808 46.807 22.459 87.218 18.652 40.41 48.886 72.473h-74.606Zm20.377-280.538q3.538-10.423 8.565-20.434 5.028-10.01 10.627-19.681-14.808-8.923-22.904-23.538-8.096-14.616-8.096-32.731 0-27.846 19.48-47.577 19.481-19.73 47.827-19.73 17.538 0 32.133 8.158 14.595 8.159 24.328 21.765 8.801-5.103 18.939-9.898 10.138-4.794 21.061-9.217-14.836-24.236-40.206-39.445-25.371-15.209-56.255-15.209-46.769 0-78.961 32.382Q367.27-526.39 367.27-480q0 31.384 15.25 56.692 15.25 25.307 40.404 39.692Z"/></svg>